<svg width="25" height="24" viewBox="0 0 25 24" fill="none" xmlns="http://www.w3.org/2000/svg">
<path d="M18.5 5.25H17.25V4C17.25 3.035 16.465 2.25 15.5 2.25H9.5C8.535 2.25 7.75 3.035 7.75 4V5.25H6.5C4.082 5.25 2.75 6.582 2.75 9V9.11902V11.2531V18C2.75 20.418 4.082 21.75 6.5 21.75H18.5C20.918 21.75 22.25 20.418 22.25 18V11.2531V9.11902V9C22.25 6.582 20.918 5.25 18.5 5.25ZM9.25 4C9.25 3.862 9.362 3.75 9.5 3.75H15.5C15.638 3.75 15.75 3.862 15.75 4V5.25H9.25V4ZM4.25 9C4.25 7.423 4.923 6.75 6.5 6.75H18.5C20.077 6.75 20.75 7.423 20.75 9V9.11902V11.2531C20.75 11.5541 20.579 11.8169 20.304 11.9399C19.439 12.3259 17.965 12.876 15.858 13.306C15.755 13.327 15.644 13.248 15.584 13.16C14.859 12.077 13.707 11.431 12.5 11.431C11.293 11.431 10.141 12.077 9.416 13.16C9.357 13.249 9.25 13.329 9.142 13.306C7.036 12.876 5.561 12.3259 4.696 11.9399C4.421 11.8169 4.25 11.5541 4.25 11.2531V9.11902V9ZM18.5 20.25H6.5C4.923 20.25 4.25 19.577 4.25 18V13.38C5.2 13.791 6.723 14.342 8.841 14.775C9.531 14.915 10.249 14.61 10.662 13.993C11.108 13.327 11.795 12.9301 12.5 12.9301C13.205 12.9301 13.892 13.327 14.337 13.993C14.683 14.51 15.241 14.809 15.82 14.809C15.932 14.809 16.045 14.798 16.157 14.775C18.276 14.342 19.799 13.791 20.749 13.38V18C20.75 19.577 20.077 20.25 18.5 20.25ZM13.52 15C13.52 15.552 13.072 16 12.52 16C11.968 16 11.515 15.552 11.515 15C11.515 14.448 11.957 14 12.51 14H12.52C13.072 14 13.52 14.448 13.52 15Z" fill="#2365FA"/>
</svg>
