<svg width="25" height="24" viewBox="0 0 25 24" fill="none" xmlns="http://www.w3.org/2000/svg">
<path d="M22.2329 9.76887C21.6909 5.89387 18.6059 2.80878 14.7309 2.26778C14.2369 2.19778 13.734 2.34879 13.353 2.67879C12.969 3.01279 12.7489 3.49381 12.7489 4.00081V10.0089C12.7489 10.9689 13.53 11.7508 14.491 11.7508H20.4999C21.0059 11.7508 21.4879 11.5308 21.8209 11.1478C22.1519 10.7668 22.3019 10.2649 22.2329 9.76887ZM20.689 10.1618C20.661 10.1948 20.5979 10.2498 20.4999 10.2498H14.4919C14.3579 10.2498 14.2499 10.1419 14.2499 10.0079V3.99983C14.2499 3.90083 14.3049 3.83789 14.3379 3.80989C14.3649 3.78589 14.4179 3.74983 14.4919 3.74983C14.5019 3.74983 14.5129 3.75078 14.5229 3.75178C14.5239 3.75178 14.5239 3.75178 14.5239 3.75178C17.7379 4.20078 20.2969 6.76078 20.7469 9.97578C20.7599 10.0658 20.717 10.1308 20.689 10.1618ZM18.5439 12.6568H12.5929C12.1799 12.6568 11.8429 12.3208 11.8429 11.9068V5.95589C11.8429 5.44089 11.614 4.95781 11.215 4.63081C10.824 4.31181 10.319 4.18281 9.82695 4.28181C7.54495 4.73981 5.49594 6.12479 4.20494 8.07979C2.89994 10.0568 2.45291 12.4488 2.94591 14.8138C3.64091 18.1488 6.34892 20.8568 9.68492 21.5528C10.3129 21.6838 10.9429 21.7489 11.5659 21.7489C13.2909 21.7489 14.9659 21.2528 16.4189 20.2938C18.3739 19.0028 19.7589 16.9548 20.2169 14.6728C20.3159 14.1828 20.1899 13.6759 19.8689 13.2849C19.5419 12.8859 19.0589 12.6568 18.5439 12.6568ZM15.5929 19.0428C13.9519 20.1268 11.9609 20.4978 9.99193 20.0848C7.23093 19.5088 4.9899 17.2679 4.4149 14.5079C4.0039 12.5369 4.3739 10.5478 5.4569 8.90584C6.5289 7.28184 8.22893 6.13288 10.1219 5.75288C10.1339 5.75088 10.1439 5.74983 10.1539 5.74983C10.2019 5.74983 10.2389 5.77082 10.2629 5.79182C10.2869 5.81082 10.3419 5.86589 10.3419 5.95589V11.9068C10.3419 13.1478 11.3519 14.1568 12.5919 14.1568H18.543C18.633 14.1568 18.6879 14.2118 18.7069 14.2358C18.7309 14.2658 18.7579 14.3149 18.7449 14.3789C18.3659 16.2709 17.2169 17.9708 15.5929 19.0428Z" fill="#999EC1"/>
</svg>
