<svg width="496" height="496" viewBox="0 0 496 496" fill="none" xmlns="http://www.w3.org/2000/svg">
<circle cx="248" cy="248" r="248" fill="#151A37"/>
<g clip-path="url(#clip0_134_2167)">
<mask id="path-2-inside-1_134_2167" fill="white">
<path d="M47.4488 280.96C36.5437 282.716 29.0385 293.013 31.7616 303.718C42.5479 346.121 65.5806 384.587 98.1909 414.194C135.755 448.298 183.796 468.621 234.43 471.826C285.065 475.032 335.285 460.931 376.85 431.836C418.415 402.742 448.856 360.382 463.177 311.71C477.498 263.037 474.848 210.942 455.663 163.973C436.478 117.004 401.897 77.9517 357.595 53.2243C313.293 28.4969 261.901 19.5632 211.853 27.8894C168.404 35.1176 128.209 54.9809 96.1777 84.7854C88.0911 92.3097 88.8237 105.031 97.0399 112.413L141.165 152.062C149.381 159.444 161.943 158.616 170.545 151.688C187.121 138.339 206.939 129.393 228.152 125.864C255.98 121.235 284.555 126.202 309.188 139.951C333.821 153.7 353.049 175.414 363.716 201.53C374.384 227.645 375.857 256.612 367.894 283.675C359.931 310.738 343.006 334.291 319.895 350.468C296.783 366.645 268.86 374.486 240.706 372.703C212.552 370.921 185.84 359.621 164.954 340.659C149.032 326.203 137.216 307.95 130.512 287.751C127.032 277.268 116.92 269.769 106.015 271.526L47.4488 280.96Z"/>
</mask>
<path d="M47.4488 280.96C36.5437 282.716 29.0385 293.013 31.7616 303.718C42.5479 346.121 65.5806 384.587 98.1909 414.194C135.755 448.298 183.796 468.621 234.43 471.826C285.065 475.032 335.285 460.931 376.85 431.836C418.415 402.742 448.856 360.382 463.177 311.71C477.498 263.037 474.848 210.942 455.663 163.973C436.478 117.004 401.897 77.9517 357.595 53.2243C313.293 28.4969 261.901 19.5632 211.853 27.8894C168.404 35.1176 128.209 54.9809 96.1777 84.7854C88.0911 92.3097 88.8237 105.031 97.0399 112.413L141.165 152.062C149.381 159.444 161.943 158.616 170.545 151.688C187.121 138.339 206.939 129.393 228.152 125.864C255.98 121.235 284.555 126.202 309.188 139.951C333.821 153.7 353.049 175.414 363.716 201.53C374.384 227.645 375.857 256.612 367.894 283.675C359.931 310.738 343.006 334.291 319.895 350.468C296.783 366.645 268.86 374.486 240.706 372.703C212.552 370.921 185.84 359.621 164.954 340.659C149.032 326.203 137.216 307.95 130.512 287.751C127.032 277.268 116.92 269.769 106.015 271.526L47.4488 280.96Z" fill="url(#paint0_linear_134_2167)" stroke="#2365FA" stroke-width="2" mask="url(#path-2-inside-1_134_2167)"/>
<path d="M83.2019 129.602C74.2354 123.151 61.6515 125.151 56.0271 134.658C36.0588 168.409 25.3117 206.83 24.8704 246.044C24.7461 257.089 34.4661 265.327 45.4781 264.465L104.619 259.835C115.631 258.973 123.69 249.303 124.602 238.295C125.908 222.54 130.206 207.173 137.265 193.027C142.196 183.144 140.323 170.695 131.357 164.245L83.2019 129.602Z" fill="#23FA6C"/>
<circle cx="247.5" cy="248.5" r="65.5" fill="#0E1226"/>
<g clip-path="url(#clip1_134_2167)">
<path d="M257.861 249.401C257.961 252.923 255.564 256.029 252.133 256.836L238.819 259.966L238.403 244.697C238.32 241.458 240.518 238.61 243.665 237.869L257.462 234.622L257.861 249.401Z" fill="#2365FA" stroke="#2365FA" stroke-width="0.114988" stroke-miterlimit="10"/>
<path d="M257.37 231.5L240.184 235.547C239.485 235.713 238.752 235.572 238.161 235.164L223.874 225.172C222.092 223.923 222.626 221.142 224.749 220.651L252.143 214.203C253.827 213.806 255.566 214.628 256.315 216.187C256.751 217.095 257.009 218.111 257.037 219.194L257.37 231.499L257.37 231.5Z" fill="#2365FA" stroke="#2365FA" stroke-width="0.114988" stroke-miterlimit="10"/>
<path d="M236.379 260.541L223.549 263.564C221.763 263.983 220 263.724 218.508 262.975C217.562 262.5 216.96 261.537 216.931 260.479L216.106 230.018C216.03 227.361 219.011 225.763 221.185 227.279L234.424 236.538C235.265 237.129 235.772 238.078 235.797 239.102L236.38 260.541H236.379Z" fill="#2365FA" stroke="#2365FA" stroke-width="0.114988" stroke-miterlimit="10"/>
<path d="M268.685 274.913L243.597 280.812C242.223 281.135 240.8 280.507 240.112 279.274C239.599 278.354 239.292 277.293 239.261 276.144L238.911 263.38L254.639 259.676C255.555 259.46 256.529 259.651 257.303 260.192L269.834 268.96C272.182 270.6 271.483 274.255 268.685 274.914V274.913Z" fill="#2365FA" stroke="#2365FA" stroke-width="0.114988" stroke-miterlimit="10"/>
<path d="M236.813 276.445C236.888 279.092 233.907 280.7 231.734 279.176L218.496 269.917C218.496 269.917 218.491 269.914 218.488 269.912C218.081 269.62 218.039 269.022 218.399 268.673C218.803 268.282 219.323 267.987 219.944 267.844L236.471 263.956L236.813 276.446V276.445Z" fill="#2365FA" stroke="#2365FA" stroke-width="0.114988" stroke-miterlimit="10"/>
<path d="M277.136 226.01C277.484 226.253 277.385 226.798 276.971 226.893C276.968 226.893 276.965 226.894 276.962 226.895L259.859 230.917L259.526 218.703C259.468 216.588 261.833 215.314 263.564 216.521L277.136 226.01Z" fill="#2365FA" stroke="#2365FA" stroke-width="0.114988" stroke-miterlimit="10"/>
<path d="M280.309 267.743C280.367 269.859 277.994 271.132 276.262 269.917L261.683 259.717C261.017 259.251 260.609 258.494 260.584 257.678L259.943 234.04L273.456 230.859C274.508 230.613 275.551 230.622 276.526 230.844C278.169 231.217 279.347 232.661 279.392 234.345L280.309 267.743Z" fill="#2365FA" stroke="#2365FA" stroke-width="0.114988" stroke-miterlimit="10"/>
</g>
</g>
<defs>
<linearGradient id="paint0_linear_134_2167" x1="248.565" y1="24.8564" x2="248.565" y2="472.273" gradientUnits="userSpaceOnUse">
<stop stop-color="#2365FA"/>
<stop offset="1" stop-color="#2365FA" stop-opacity="0"/>
</linearGradient>
<clipPath id="clip0_134_2167">
<rect width="448.648" height="448.648" fill="white" transform="translate(23.7267 23.7266)"/>
</clipPath>
<clipPath id="clip1_134_2167">
<rect width="64.4133" height="67" fill="white" transform="translate(216 214)"/>
</clipPath>
</defs>
</svg>
