<svg width="22" height="22" viewBox="0 0 22 22" fill="none" xmlns="http://www.w3.org/2000/svg">
<path d="M11 0.25C5.072 0.25 0.25 5.073 0.25 11C0.25 16.927 5.072 21.75 11 21.75C16.928 21.75 21.75 16.927 21.75 11C21.75 5.073 16.928 0.25 11 0.25ZM18.043 16.982L15.151 14.09C15.798 13.224 16.195 12.161 16.195 11C16.195 9.839 15.798 8.77597 15.151 7.90997L18.043 5.01801C19.416 6.63201 20.25 8.719 20.25 11C20.25 13.281 19.416 15.368 18.043 16.982ZM7.30603 11C7.30603 8.963 8.963 7.30603 11 7.30603C13.037 7.30603 14.694 8.963 14.694 11C14.694 13.037 13.037 14.694 11 14.694C8.963 14.694 7.30603 13.037 7.30603 11ZM16.982 3.95801L14.09 6.84998C13.224 6.20298 12.161 5.80701 11 5.80701C9.839 5.80701 8.77597 6.20398 7.90997 6.84998L5.01801 3.95801C6.63301 2.58401 8.719 1.75 11 1.75C13.281 1.75 15.368 2.58401 16.982 3.95801ZM3.95697 5.01801L6.849 7.90997C6.202 8.77597 5.80499 9.839 5.80499 11C5.80499 12.161 6.202 13.224 6.849 14.09L3.95697 16.982C2.58397 15.368 1.75 13.281 1.75 11C1.75 8.719 2.58397 6.63201 3.95697 5.01801ZM5.01801 18.042L7.90997 15.15C8.77597 15.797 9.839 16.193 11 16.193C12.161 16.193 13.224 15.796 14.09 15.15L16.982 18.042C15.367 19.416 13.281 20.25 11 20.25C8.719 20.25 6.63201 19.416 5.01801 18.042Z" fill="#2365FA"/>
</svg>
