<svg width="25" height="24" viewBox="0 0 25 24" fill="none" xmlns="http://www.w3.org/2000/svg">
<path d="M21.3 2.41701C20.714 2.13601 20.0341 2.21203 19.5291 2.61903L18.4969 3.44301C17.0399 4.60901 15.21 5.25099 13.345 5.25099H8C5.105 5.25099 2.75098 7.60601 2.75098 10.5C2.75098 13.228 4.84896 15.45 7.51196 15.7L9.77698 20.23C10.246 21.168 11.1891 21.75 12.2371 21.75H13.5C13.721 21.75 13.93 21.653 14.072 21.485C14.214 21.317 14.276 21.094 14.24 20.877L13.386 15.751C15.237 15.761 17.05 16.4 18.496 17.557L19.526 18.381C19.832 18.625 20.1989 18.75 20.5699 18.75C20.8169 18.75 21.066 18.695 21.299 18.582C21.885 18.301 22.249 17.722 22.249 17.072V3.92702C22.25 3.27802 21.886 2.69901 21.3 2.41701ZM4.25 10.5C4.25 8.43301 5.93202 6.75099 7.99902 6.75099H13.344C14.159 6.75099 14.967 6.646 15.75 6.446V14.554C14.967 14.354 14.158 14.249 13.344 14.249H7.99902C5.93202 14.249 4.25 12.567 4.25 10.5ZM12.236 20.25C11.759 20.25 11.331 19.985 11.118 19.559L9.21301 15.749H11.864L12.614 20.25H12.236ZM20.75 17.072C20.75 17.145 20.717 17.199 20.65 17.231C20.584 17.262 20.519 17.256 20.463 17.21L19.433 16.386C18.764 15.851 18.028 15.412 17.249 15.072V5.92799C18.027 5.58799 18.763 5.149 19.432 4.61501L20.464 3.78999C20.52 3.74499 20.582 3.737 20.65 3.769C20.695 3.791 20.75 3.83599 20.75 3.92799V17.072Z" fill="#2365FA"/>
</svg>
