<svg width="24" height="24" viewBox="0 0 24 24" fill="none" xmlns="http://www.w3.org/2000/svg">
<circle cx="12" cy="12" r="11.5" stroke="#999EC1"/>
<g clip-path="url(#clip0_136_1670)">
<path d="M11.112 12.976C11.112 12.552 11.172 12.212 11.292 11.956C11.42 11.692 11.632 11.432 11.928 11.176C12.232 10.904 12.452 10.7 12.588 10.564C12.732 10.428 12.852 10.276 12.948 10.108C13.052 9.93203 13.104 9.74403 13.104 9.54403C13.104 9.24003 13 8.99603 12.792 8.81203C12.592 8.62803 12.328 8.53603 12 8.53603C11.328 8.53603 10.752 8.87203 10.272 9.54403L9.47998 8.75203C9.79998 8.31203 10.176 7.97603 10.608 7.74403C11.048 7.50403 11.492 7.38403 11.94 7.38403C12.66 7.38403 13.232 7.58003 13.656 7.97203C14.088 8.35603 14.304 8.88803 14.304 9.56803C14.304 9.92803 14.204 10.276 14.004 10.612C13.812 10.94 13.476 11.292 12.996 11.668C12.492 12.06 12.24 12.496 12.24 12.976V13.432H11.112V12.976ZM10.908 15.232C10.908 15 10.984 14.808 11.136 14.656C11.296 14.496 11.492 14.416 11.724 14.416C11.956 14.416 12.148 14.496 12.3 14.656C12.46 14.808 12.54 15 12.54 15.232C12.54 15.456 12.46 15.648 12.3 15.808C12.14 15.968 11.948 16.048 11.724 16.048C11.5 16.048 11.308 15.968 11.148 15.808C10.988 15.648 10.908 15.456 10.908 15.232Z" fill="#999EC1"/>
</g>
<defs>
<clipPath id="clip0_136_1670">
<rect width="6" height="10" fill="white" transform="translate(9 7)"/>
</clipPath>
</defs>
</svg>
