<svg width="24" height="24" viewBox="0 0 24 24" fill="none" xmlns="http://www.w3.org/2000/svg">
<path d="M15.2499 5.77997C13.5999 5.77997 12.2499 7.11997 12.2499 8.76997C12.2499 10.42 13.5999 11.76 15.2499 11.76C16.8999 11.76 18.2499 10.42 18.2499 8.76997C18.2499 7.11997 16.8999 5.77997 15.2499 5.77997ZM15.2499 10.27C14.4199 10.27 13.7499 9.59997 13.7499 8.77997C13.7499 7.95997 14.4199 7.28997 15.2499 7.28997C16.0799 7.28997 16.7499 7.95997 16.7499 8.77997C16.7499 9.59997 16.0799 10.27 15.2499 10.27ZM21.4299 3.06997C21.3599 2.79997 21.1499 2.58997 20.8799 2.52997C20.6399 2.46997 14.8599 1.11997 11.0899 4.88997C10.5799 5.39997 10.1499 5.89997 9.74991 6.37997L7.65991 6.82998C5.67991 7.14998 3.9999 8.49997 3.2599 10.35L2.29991 12.74C2.19991 13 2.23991 13.29 2.41991 13.5C2.55991 13.67 2.76991 13.76 2.98991 13.76C3.03991 13.76 3.0999 13.76 3.1499 13.74L6.51991 12.99C6.46991 13.16 6.41991 13.33 6.35991 13.51C6.22991 13.96 6.33991 14.44 6.66991 14.76L9.18991 17.28C9.42991 17.52 9.74991 17.65 10.0799 17.65C10.1899 17.65 10.2999 17.64 10.3999 17.61C10.6099 17.55 10.8099 17.5 11.0099 17.44L10.2499 20.83C10.1899 21.1 10.2799 21.38 10.4999 21.56C10.6399 21.68 10.8099 21.74 10.9899 21.74C11.0799 21.74 11.1799 21.72 11.2699 21.69L13.6599 20.73C15.5199 19.99 16.8799 18.31 17.1899 16.38L17.6299 14.36C18.1299 13.95 18.6399 13.51 19.1799 12.97C22.9499 9.18998 21.4899 3.30998 21.4299 3.05998V3.06997ZM4.2299 11.98L4.65991 10.91C5.19991 9.53998 6.44991 8.54997 7.93991 8.30997L8.48991 8.18998C8.23991 8.60998 8.02991 9.02997 7.82991 9.46997C7.81991 9.48997 7.80991 9.50997 7.79991 9.52997C7.52991 10.11 7.28991 10.72 7.06991 11.35L4.2299 11.98ZM10.1599 16.13L7.84991 13.82C8.14991 12.81 8.4399 11.93 8.7599 11.11L12.9499 15.29C12.1299 15.59 11.2299 15.85 10.1699 16.14L10.1599 16.13ZM15.7199 16.11C15.4899 17.56 14.4899 18.8 13.1099 19.34L12.0399 19.77L12.6699 16.96C13.3399 16.75 13.9599 16.51 14.5499 16.26C14.5599 16.26 14.5799 16.25 14.5899 16.24C15.0199 16.05 15.4299 15.84 15.8299 15.61L15.7199 16.11ZM14.4399 14.66L9.3999 9.62997C10.0299 8.39997 10.8499 7.24997 12.1499 5.94997C14.7599 3.33997 18.7299 3.68998 20.0699 3.89998C20.3099 5.24998 20.7399 9.29997 18.1199 11.92C16.8199 13.22 15.6999 14.04 14.4399 14.66Z" fill="#2365FA"/>
</svg>
