<svg width="20" height="23" viewBox="0 0 20 23" fill="none" xmlns="http://www.w3.org/2000/svg">
<path d="M10 22.4694C9.92 22.4694 9.83994 22.4563 9.76294 22.4303C8.17394 21.9003 0.25 18.8413 0.25 10.6073V4.71935C0.25 4.36235 0.502027 4.05325 0.853027 3.98425C5.73303 3.00825 7.46305 2.15035 9.65405 1.06335C9.86505 0.958348 10.145 0.944432 10.356 1.04943C12.517 2.13843 14.2239 2.99925 19.1479 3.98425C19.4989 4.05425 19.751 4.36235 19.751 4.71935V10.6083C19.751 18.8423 11.827 21.9013 10.238 22.4313C10.16 22.4563 10.08 22.4694 10 22.4694ZM1.75 5.33141V10.6073C1.75 17.4723 8.168 20.2674 10 20.9244C11.832 20.2674 18.25 17.4713 18.25 10.6073V5.33141C13.829 4.40641 11.9699 3.53824 10.0149 2.55724C7.93789 3.58424 6.135 4.41541 1.75 5.33141ZM9.54199 14.2494L13.542 10.2494C13.835 9.95638 13.835 9.48135 13.542 9.18835C13.249 8.89535 12.774 8.89535 12.481 9.18835L9.01099 12.6583L7.54102 11.1883C7.24802 10.8953 6.77298 10.8953 6.47998 11.1883C6.18698 11.4813 6.18698 11.9564 6.47998 12.2494L8.47998 14.2494C8.62598 14.3954 8.81801 14.4694 9.01001 14.4694C9.20201 14.4694 9.39599 14.3964 9.54199 14.2494Z" fill="#2365FA"/>
</svg>
