<svg width="30" height="31" viewBox="0 0 30 31" fill="none" xmlns="http://www.w3.org/2000/svg">
<rect y="0.5" width="30" height="30" rx="15" fill="#ECEFF0"/>
<path fill-rule="evenodd" clip-rule="evenodd" d="M6.82968 5.41462L2.1287 15.2692C2.11081 15.3059 2.10514 15.3473 2.11252 15.3874C2.1199 15.4275 2.13995 15.4642 2.16972 15.4921L14.8659 27.6337C14.902 27.6682 14.95 27.6875 15 27.6875C15.05 27.6875 15.098 27.6682 15.1341 27.6337L27.8303 15.4928C27.8601 15.4649 27.8801 15.4282 27.8875 15.3881C27.8949 15.348 27.8892 15.3066 27.8713 15.27L23.1703 5.41538C23.1551 5.38228 23.1307 5.35424 23.1 5.33462C23.0693 5.31499 23.0336 5.30461 22.9971 5.3047H7.00438C6.96774 5.30425 6.93175 5.31438 6.90075 5.33389C6.86975 5.35339 6.84507 5.38143 6.82968 5.41462Z" fill="#50AF95"/>
<path fill-rule="evenodd" clip-rule="evenodd" d="M16.6311 16.2812C16.54 16.288 16.0691 16.3161 15.0186 16.3161C14.183 16.3161 13.5898 16.2911 13.3817 16.2812C10.1528 16.1394 7.74264 15.5785 7.74264 14.9069C7.74264 14.2352 10.1528 13.675 13.3817 13.531V15.7225C13.5929 15.7377 14.1975 15.7733 15.033 15.7733C16.0356 15.7733 16.5377 15.7316 16.6281 15.7233V13.5325C19.8502 13.6758 22.255 14.2367 22.255 14.9069C22.255 15.577 19.851 16.1379 16.6281 16.2804L16.6311 16.2812ZM16.6311 13.3059V11.3448H21.1278V8.35431H8.88504V11.3448H13.3809V13.3051C9.72664 13.4726 6.97852 14.1951 6.97852 15.0607C6.97852 15.9264 9.72664 16.6481 13.3809 16.8164V23.1006H16.6304V16.8141C20.2763 16.6466 23.0199 15.9249 23.0199 15.06C23.0199 14.1951 20.2786 13.4734 16.6304 13.3051L16.6311 13.3059Z" fill="white"/>
</svg>
